<svg width="97" height="97" xmlns="http://www.w3.org/2000/svg" xmlns:xlink="http://www.w3.org/1999/xlink" xml:space="preserve" overflow="hidden"><g transform="translate(-1065 -321)"><g><g><g><g><path d="M1092 365C1092 368.314 1089.31 371 1086 371 1082.69 371 1080 368.314 1080 365 1080 361.686 1082.69 359 1086 359 1089.31 359 1092 361.686 1092 365Z" fill="#2C3D4E" fill-rule="nonzero" fill-opacity="1"/><path d="M1093 371 1105 371 1105 361 1103 361C1097.5 361 1093 365.5 1093 371Z" fill="#2C3D4E" fill-rule="nonzero" fill-opacity="1"/><path d="M1154 361 1108 361 1108 385C1108 387.2 1109.8 389 1112 389L1152 389 1152 394 1158 394 1158 365C1158 362.8 1156.2 361 1154 361Z" fill="#2C3D4E" fill-rule="nonzero" fill-opacity="1"/><path d="M1076 349C1076 347.3 1074.7 346 1073 346 1071.3 346 1070 347.3 1070 349L1070 394 1076 394 1076 384 1105 384 1105 374 1076 374 1076 349Z" fill="#2C3D4E" fill-rule="nonzero" fill-opacity="1"/></g></g></g></g></g></svg>